<?xml version="1.0" encoding="iso-8859-1"?>
<!-- Generator: Adobe Illustrator 19.0.0, SVG Export Plug-In . SVG Version: 6.00 Build 0)  -->
<svg version="1.1" id="Layer_1" xmlns="http://www.w3.org/2000/svg" xmlns:xlink="http://www.w3.org/1999/xlink" x="0px" y="0px"
	 viewBox="0 0 512 512" style="enable-background:new 0 0 512 512;" xml:space="preserve">
<path style="fill:#FFD782;" d="M295.724,494.345h-44.138c-4.875,0-8.828-3.953-8.828-8.828V282.483c0-4.875,3.953-8.828,8.828-8.828
	h44.138c4.875,0,8.828,3.953,8.828,8.828v203.034C304.552,490.392,300.599,494.345,295.724,494.345z"/>
<path style="fill:#FFC36E;" d="M295.724,494.345h-44.138c-4.875,0-8.828-3.953-8.828-8.828V335.448c0-4.875,3.953-8.828,8.828-8.828
	h44.138c4.875,0,8.828,3.953,8.828,8.828v150.069C304.552,490.392,300.599,494.345,295.724,494.345z"/>
<path style="fill:#C3E678;" d="M384,494.345h-44.138c-4.875,0-8.828-3.953-8.828-8.828V123.586c0-4.875,3.953-8.828,8.828-8.828H384
	c4.875,0,8.828,3.953,8.828,8.828v361.931C392.828,490.392,388.875,494.345,384,494.345z"/>
<path style="fill:#A5D76E;" d="M384,494.345h-44.138c-4.875,0-8.828-3.953-8.828-8.828v-256c0-4.875,3.953-8.828,8.828-8.828H384
	c4.875,0,8.828,3.953,8.828,8.828v256C392.828,490.392,388.875,494.345,384,494.345z"/>
<path style="fill:#00D2FF;" d="M119.172,494.345H75.034c-4.875,0-8.828-3.953-8.828-8.828V335.448c0-4.875,3.953-8.828,8.828-8.828
	h44.138c4.875,0,8.828,3.953,8.828,8.828v150.069C128,490.392,124.047,494.345,119.172,494.345z"/>
<path style="fill:#9BE6D2;" d="M472.276,494.345h-44.138c-4.875,0-8.828-3.953-8.828-8.828V70.621c0-4.875,3.953-8.828,8.828-8.828
	h44.138c4.875,0,8.828,3.953,8.828,8.828v414.897C481.103,490.392,477.151,494.345,472.276,494.345z"/>
<path style="fill:#78D2BE;" d="M472.276,494.345h-44.138c-4.875,0-8.828-3.953-8.828-8.828V176.552c0-4.875,3.953-8.828,8.828-8.828
	h44.138c4.875,0,8.828,3.953,8.828,8.828v308.966C481.103,490.392,477.151,494.345,472.276,494.345z"/>
<path style="fill:#FF6464;" d="M207.448,494.345H163.31c-4.875,0-8.828-3.953-8.828-8.828v-256c0-4.875,3.953-8.828,8.828-8.828
	h44.138c4.875,0,8.828,3.953,8.828,8.828v256C216.276,490.392,212.323,494.345,207.448,494.345z"/>
<path style="fill:#D2555A;" d="M207.448,494.345H163.31c-4.875,0-8.828-3.953-8.828-8.828V282.483c0-4.875,3.953-8.828,8.828-8.828
	h44.138c4.875,0,8.828,3.953,8.828,8.828v203.034C216.276,490.392,212.323,494.345,207.448,494.345z"/>
<path style="fill:#18BDF6;" d="M119.172,494.345H75.034c-4.875,0-8.828-3.953-8.828-8.828v-97.103c0-4.875,3.953-8.828,8.828-8.828
	h44.138c4.875,0,8.828,3.953,8.828,8.828v97.103C128,490.392,124.047,494.345,119.172,494.345z"/>
<g>
	<path style="fill:#D7DEED;" d="M26.483,450.207H8.828c-4.875,0-8.828-3.953-8.828-8.828l0,0c0-4.875,3.953-8.828,8.828-8.828
		h17.655V450.207z"/>
	<path style="fill:#D7DEED;" d="M26.483,397.241H8.828c-4.875,0-8.828-3.953-8.828-8.828l0,0c0-4.875,3.953-8.828,8.828-8.828
		h17.655V397.241z"/>
	<path style="fill:#D7DEED;" d="M26.483,344.276H8.828c-4.875,0-8.828-3.953-8.828-8.828l0,0c0-4.875,3.953-8.828,8.828-8.828
		h17.655V344.276z"/>
	<path style="fill:#D7DEED;" d="M26.483,291.31H8.828c-4.875,0-8.828-3.953-8.828-8.828l0,0c0-4.875,3.953-8.828,8.828-8.828h17.655
		V291.31z"/>
	<path style="fill:#D7DEED;" d="M26.483,238.345H8.828c-4.875,0-8.828-3.953-8.828-8.828l0,0c0-4.875,3.953-8.828,8.828-8.828
		h17.655V238.345z"/>
	<path style="fill:#D7DEED;" d="M26.483,185.379H8.828c-4.875,0-8.828-3.953-8.828-8.828l0,0c0-4.875,3.953-8.828,8.828-8.828
		h17.655V185.379z"/>
	<path style="fill:#D7DEED;" d="M26.483,132.414H8.828c-4.875,0-8.828-3.953-8.828-8.828l0,0c0-4.875,3.953-8.828,8.828-8.828
		h17.655V132.414z"/>
	<path style="fill:#D7DEED;" d="M26.483,79.448H8.828C3.953,79.448,0,75.496,0,70.621l0,0c0-4.875,3.953-8.828,8.828-8.828h17.655
		V79.448z"/>
</g>
<path style="fill:#C7CFE2;" d="M26.483,494.345L26.483,494.345c-4.875,0-8.828-3.953-8.828-8.828V17.655
	c0-4.875,3.953-8.828,8.828-8.828l0,0c4.875,0,8.828,3.953,8.828,8.828v467.862C35.31,490.392,31.358,494.345,26.483,494.345z"/>
<path style="fill:#AFB9D2;" d="M0,494.345L0,494.345c0-4.875,3.953-8.828,8.828-8.828h494.345c4.875,0,8.828,3.953,8.828,8.828l0,0
	c0,4.875-3.953,8.828-8.828,8.828H8.828C3.953,503.172,0,499.22,0,494.345z"/>
<g>
</g>
<g>
</g>
<g>
</g>
<g>
</g>
<g>
</g>
<g>
</g>
<g>
</g>
<g>
</g>
<g>
</g>
<g>
</g>
<g>
</g>
<g>
</g>
<g>
</g>
<g>
</g>
<g>
</g>
</svg>
