<?xml version="1.0" encoding="iso-8859-1"?>
<!-- Generator: Adobe Illustrator 19.0.0, SVG Export Plug-In . SVG Version: 6.00 Build 0)  -->
<svg version="1.1" id="Layer_1" xmlns="http://www.w3.org/2000/svg" xmlns:xlink="http://www.w3.org/1999/xlink" x="0px" y="0px"
	 viewBox="0 0 512 512" style="enable-background:new 0 0 512 512;" xml:space="preserve">
<polygon style="fill:#E4EAF6;" points="269.288,312.21 269.288,228.285 251.572,228.285 251.572,312.21 165.22,371.575 
	175.255,386.178 260.43,327.617 345.605,386.178 355.64,371.575 "/>
<polygon style="fill:#E6AF78;" points="297.226,167.639 297.226,139.02 223.633,139.02 223.633,167.639 260.43,200.347 "/>
<path style="fill:#707487;" d="M354.121,181.026l-50.591-11.903c-0.764-0.179-1.467-0.485-2.125-0.855l-40.977,23.903
	l-39.379-25.059c-1.02,0.96-2.284,1.673-3.722,2.011l-50.591,11.903c-7.388,1.738-12.609,8.33-12.609,15.92v32.021
	c0,4.516,3.661,8.177,8.177,8.177h196.247c4.516,0,8.177-3.661,8.177-8.177v-32.021C366.73,189.357,361.509,182.765,354.121,181.026
	z"/>
<path style="fill:#D29B6E;" d="M223.633,139.02v30.196c46.354,16.7,73.593-25.097,73.593-25.097v-5.099
	C297.226,139.02,223.633,139.02,223.633,139.02z"/>
<path style="fill:#F0C087;" d="M207.28,44.985l3.563,78.382c0.333,7.323,3.923,14.112,9.787,18.511l16.905,12.679
	c4.246,3.185,9.411,4.906,14.718,4.906h16.354c5.307,0,10.473-1.722,14.718-4.906l16.905-12.679
	c5.864-4.398,9.454-11.188,9.787-18.511l3.563-78.382H207.28z"/>
<path style="fill:#E6AF78;" d="M248.164,61.339c16.354,0,40.885-4.088,46.704-16.354H207.28l3.562,78.382
	c0.333,7.323,3.923,14.112,9.787,18.511l16.905,12.679c4.246,3.185,9.411,4.906,14.718,4.906h8.177
	c-8.177,0-24.531-16.354-24.531-36.797c0-9.998,0-36.797,0-49.062C235.899,69.516,239.987,61.339,248.164,61.339z"/>
<g>
	<path style="fill:#5B5D6E;" d="M336.715,210.609l26.493-23.799c2.22,2.811,3.522,6.348,3.522,10.135v32.021
		c0,4.516-3.661,8.177-8.177,8.177h-28.619v-11.327C329.934,220.014,332.4,214.487,336.715,210.609z"/>
	<path style="fill:#5B5D6E;" d="M184.144,210.609l-26.493-23.799c-2.22,2.811-3.522,6.348-3.522,10.135v32.021
		c0,4.516,3.661,8.177,8.177,8.177h28.619v-11.327C190.926,220.014,188.46,214.487,184.144,210.609z"/>
	<polygon style="fill:#5B5D6E;" points="270.651,237.143 250.208,237.143 252.764,200.347 268.096,200.347 	"/>
</g>
<path style="fill:#515262;" d="M270.651,192.17h-20.443v2.362c0,5.47,4.434,9.904,9.904,9.904h0.634c5.47,0,9.904-4.434,9.904-9.904
	v-2.362H270.651z"/>
<g>
	<path style="fill:#5B5D6E;" d="M223.06,158.536l37.37,33.633c0,0-10.466,5.283-23.382,15.932c-2.664,2.197-6.695,1.307-8.123-1.837
		l-17.557-38.626l5.554-8.331C218.305,157.234,221.206,156.869,223.06,158.536z"/>
	<path style="fill:#5B5D6E;" d="M297.8,158.536l-37.37,33.633c0,0,10.466,5.283,23.382,15.932c2.664,2.197,6.695,1.307,8.123-1.837
		l17.557-38.626l-5.554-8.331C302.555,157.234,299.654,156.869,297.8,158.536z"/>
</g>
<path style="fill:#785550;" d="M285.216,17.899l3.833,27.087c17.496,3.499,20.018,30.957,20.381,38.8
	c0.066,1.423,0.52,2.798,1.292,3.995l6.676,10.355c0,0-2.285-17.121,8.177-28.619C325.575,69.516,329.167,1.545,285.216,17.899z"/>
<path style="fill:#F0C087;" d="M321.501,96.386l-4.617,18.469c-0.547,2.188-2.514,3.723-4.769,3.723l0,0
	c-2.479,0-4.57-1.846-4.878-4.305l-2.361-18.889c-0.631-5.051,3.307-9.513,8.398-9.513h0.017
	C318.795,85.87,322.835,91.044,321.501,96.386z"/>
<path style="fill:#694B4B;" d="M211.197,10.574l6.048,4.131c-27.341,20.187-22.231,54.811-22.231,54.811
	c8.177,8.177,8.177,28.619,8.177,28.619l8.177-8.177c0,0-3.156-23.621,12.266-32.707c14.31-8.432,26.831-4.088,39.607-4.088
	c34.241,0,43.823-12.904,42.162-28.619c-0.859-8.132-13.292-25.069-44.973-24.531C247.644,0.23,223.633,4.101,211.197,10.574z"/>
<path style="fill:#5A4146;" d="M208.813,49.585c0,0-4.344-17.121,8.432-34.88c-27.341,20.187-22.231,54.811-22.231,54.811
	c8.177,8.177,8.177,28.619,8.177,28.619l8.177-8.177c0,0-3.156-23.621,12.266-32.707c14.31-8.432,26.831-4.088,39.607-4.088
	c5.569,0,10.422-0.373,14.744-1.012C251.614,53.034,236.069,33.06,208.813,49.585z"/>
<path style="fill:#E6AF78;" d="M199.359,96.386l4.617,18.469c0.547,2.188,2.514,3.723,4.769,3.723l0,0
	c2.479,0,4.57-1.846,4.878-4.305l2.361-18.889c0.631-5.051-3.307-9.513-8.398-9.513h-0.017
	C202.064,85.87,198.024,91.044,199.359,96.386z"/>
<path style="fill:#5B5D6E;" d="M309.492,228.967h-20.443c-4.516,0-8.177,3.661-8.177,8.177l0,0h36.797l0,0
	C317.668,232.628,314.007,228.967,309.492,228.967z"/>
<polygon style="fill:#E6AF78;" points="164.351,442.249 164.351,413.629 90.758,413.629 90.758,442.249 127.554,474.956 "/>
<path style="fill:#EFF2FA;" d="M221.246,455.636l-50.591-11.903c-0.764-0.179-1.467-0.485-2.124-0.855l-40.977,23.903
	l-39.379-25.059c-1.02,0.96-2.284,1.673-3.722,2.011l-50.591,11.903c-7.388,1.738-12.609,8.33-12.609,15.92v32.021
	c0,4.516,3.661,8.177,8.177,8.177h196.247c4.516,0,8.177-3.661,8.177-8.177v-32.021
	C233.855,463.966,228.634,457.374,221.246,455.636z"/>
<path style="fill:#D29B6E;" d="M90.758,413.629v30.196c46.354,16.7,73.593-25.097,73.593-25.097v-5.099L90.758,413.629
	L90.758,413.629z"/>
<path style="fill:#F0C087;" d="M74.404,319.595l3.563,78.382c0.333,7.323,3.923,14.112,9.787,18.511l16.905,12.679
	c4.246,3.185,9.411,4.906,14.718,4.906h16.354c5.307,0,10.473-1.722,14.718-4.906l16.905-12.679
	c5.864-4.398,9.454-11.188,9.787-18.511l3.563-78.382H74.404z"/>
<path style="fill:#E6AF78;" d="M115.289,335.948c16.354,0,40.885-4.088,46.703-16.354H74.404l3.562,78.382
	c0.333,7.323,3.923,14.112,9.787,18.511l16.905,12.679c4.246,3.185,9.411,4.906,14.718,4.906h8.177
	c-8.177,0-24.531-16.354-24.531-36.797c0-9.998,0-36.797,0-49.062C103.023,344.124,107.112,335.948,115.289,335.948z"/>
<g>
	<path style="fill:#E4EAF6;" d="M203.839,485.218l26.493-23.799c2.22,2.811,3.522,6.348,3.522,10.135v32.021
		c0,4.516-3.661,8.177-8.177,8.177h-28.619v-11.327C197.058,494.624,199.524,489.096,203.839,485.218z"/>
	<path style="fill:#E4EAF6;" d="M51.269,485.218l-26.493-23.799c-2.22,2.811-3.522,6.348-3.522,10.135v32.021
		c0,4.516,3.661,8.177,8.177,8.177H58.05v-11.327C58.051,494.624,55.585,489.096,51.269,485.218z"/>
</g>
<polygon style="fill:#5B5D6E;" points="137.776,511.752 117.333,511.752 119.889,474.956 135.22,474.956 "/>
<path style="fill:#515262;" d="M137.776,466.78h-20.443v2.362c0,5.47,4.434,9.904,9.904,9.904h0.634c5.47,0,9.904-4.434,9.904-9.904
	v-2.362H137.776z"/>
<g>
	<path style="fill:#E4EAF6;" d="M90.184,433.145l37.37,33.633c0,0-10.466,5.283-23.382,15.932c-2.664,2.197-6.695,1.307-8.123-1.837
		l-17.557-38.626l5.554-8.331C85.43,431.842,88.331,431.478,90.184,433.145z"/>
	<path style="fill:#E4EAF6;" d="M164.925,433.145l-37.37,33.633c0,0,10.466,5.283,23.382,15.932
		c2.664,2.197,6.695,1.307,8.123-1.837l17.557-38.626l-5.554-8.331C169.679,431.842,166.778,431.478,164.925,433.145z"/>
</g>
<path style="fill:#785550;" d="M152.341,292.508l3.833,27.087c17.496,3.499,20.018,30.957,20.381,38.8
	c0.066,1.423,0.52,2.798,1.292,3.995l6.676,10.355c0,0-2.285-17.121,8.177-28.619C192.7,344.124,196.292,276.154,152.341,292.508z"
	/>
<path style="fill:#F0C087;" d="M188.625,370.995l-4.617,18.469c-0.547,2.188-2.514,3.723-4.769,3.723l0,0
	c-2.479,0-4.57-1.846-4.878-4.305L172,369.992c-0.631-5.051,3.307-9.513,8.398-9.513h0.017
	C185.92,360.479,189.961,365.654,188.625,370.995z"/>
<path style="fill:#694B4B;" d="M78.322,285.183l6.048,4.131c-27.341,20.187-22.231,54.811-22.231,54.811
	c8.177,8.177,8.177,28.619,8.177,28.619l8.177-8.177c0,0-3.156-23.621,12.266-32.707c14.31-8.432,26.831-4.088,39.607-4.088
	c34.241,0,43.823-12.904,42.162-28.619c-0.859-8.132-13.292-25.069-44.973-24.531C114.769,274.839,90.758,278.71,78.322,285.183z"/>
<path style="fill:#5A4146;" d="M75.938,324.193c0,0-4.344-17.121,8.432-34.88c-27.341,20.187-22.231,54.811-22.231,54.811
	c8.177,8.177,8.177,28.619,8.177,28.619l8.177-8.177c0,0-3.156-23.621,12.266-32.707c14.31-8.432,26.831-4.088,39.607-4.088
	c5.569,0,10.422-0.373,14.744-1.012C118.738,327.643,103.194,307.669,75.938,324.193z"/>
<path style="fill:#E6AF78;" d="M66.484,370.995l4.617,18.469c0.547,2.188,2.514,3.723,4.769,3.723l0,0
	c2.479,0,4.57-1.846,4.878-4.305l2.361-18.889c0.631-5.051-3.307-9.513-8.398-9.513h-0.017
	C69.189,360.479,65.148,365.654,66.484,370.995z"/>
<path style="fill:#E4EAF6;" d="M176.617,503.575h-20.443c-4.516,0-8.177,3.661-8.177,8.177l0,0h36.797l0,0
	C184.793,507.237,181.132,503.575,176.617,503.575z"/>
<path style="fill:#694B4B;" d="M402.164,277.513c-82.478,0-73.333,100.299-72.956,172.983c0.014,2.745,1.452,5.22,3.804,6.637
	c9.14,5.51,34.24,18.391,69.153,18.391s60.013-12.881,69.153-18.391c2.351-1.417,3.789-3.892,3.804-6.637
	C475.497,377.813,484.642,277.513,402.164,277.513z"/>
<path style="fill:#5A4146;" d="M396.85,277.72c-76.708,4.301-68.01,101.71-67.642,172.776c0.014,2.745,1.452,5.22,3.804,6.637
	c9.14,5.51,34.24,18.391,69.153,18.391l20.844-145.903"/>
<path style="fill:#694B4B;" d="M402.164,277.513c-46.897,0-50.154,56.667-50.154,56.667c27.031-4.56,43.641,6.839,70.998-4.56
	l-20.844,145.903c34.914,0,60.013-12.881,69.153-18.391c2.351-1.417,3.789-3.892,3.804-6.637
	C475.497,377.813,484.642,277.513,402.164,277.513z"/>
<path style="fill:#785550;" d="M475.12,450.496c0.323-62.456,7.066-145.243-43.359-167.321c-0.879,4.569-2.473,17.324,1.668,25.603
	c10.422,20.844,20.844,20.844,31.264,36.475c10.422,57.319-19.913,118.156-29.988,126.439l0,0
	c17.851-4.245,30.647-10.963,36.612-14.559C473.667,455.715,475.106,453.241,475.12,450.496z"/>
<path style="fill:#E6AF78;" d="M481.127,466.305l-46.496-19.373c-3.883-1.618-6.413-5.412-6.413-9.62v-12.592h-52.108v12.592
	c0,4.208-2.53,8.002-6.413,9.62l-46.496,19.373c-5.825,2.427-9.62,8.119-9.62,14.43v20.844c0,5.756,4.666,10.422,10.422,10.422
	h156.323c5.756,0,10.422-4.666,10.422-10.422v-20.844C490.747,474.423,486.953,468.732,481.127,466.305z"/>
<path style="fill:#EFF2FA;" d="M481.127,466.305l-44.956-18.732l-34.007,14.677l-34.007-14.677L323.2,466.305
	c-5.825,2.427-9.62,8.119-9.62,14.43v20.844c0,5.756,4.666,10.422,10.422,10.422h156.323c5.756,0,10.422-4.666,10.422-10.422
	v-20.844C490.747,474.423,486.953,468.732,481.127,466.305z"/>
<path style="fill:#D29B6E;" d="M428.217,424.718h-52.108v12.592c0,4.208-2.53,8.002-6.413,9.62l-7.263,3.026
	C418.007,464.126,428.217,424.718,428.217,424.718z"/>
<g>
	<path style="fill:#E4EAF6;" d="M338.978,486.462l-20.916-16.637c-2.803,2.866-4.482,6.741-4.482,10.909v20.844
		c0,5.756,4.666,10.422,10.422,10.422h20.844v-13.33C344.845,493.92,342.686,489.429,338.978,486.462z"/>
	<path style="fill:#E4EAF6;" d="M490.747,501.577v-20.844c0-4.136-1.652-7.985-4.415-10.844l-20.983,16.572
		c-3.708,2.966-5.866,7.458-5.866,12.207v13.33h20.844C486.081,511.999,490.747,507.333,490.747,501.577z"/>
	<path style="fill:#E4EAF6;" d="M402.945,501.577h-1.563c-2.446,0-4.429-1.983-4.429-4.429v-34.886h10.422v34.886
		C407.375,499.594,405.391,501.577,402.945,501.577z"/>
	<path style="fill:#E4EAF6;" d="M402.164,462.25l-29.824-22.367c-1.915-1.436-4.642-0.969-5.969,1.022l-5.893,8.84l18.285,25.598
		c1.39,1.945,4.129,2.326,5.996,0.833L402.164,462.25z"/>
	<path style="fill:#E4EAF6;" d="M402.164,462.25l29.824-22.367c1.915-1.436,4.642-0.969,5.969,1.022l5.893,8.84l-18.285,25.598
		c-1.39,1.945-4.129,2.326-5.996,0.833L402.164,462.25z"/>
</g>
<path style="fill:#F0C087;" d="M428.217,324.41c-26.054,26.054-77.185,5.211-77.185,46.897l3.236,30.706
	c0.625,6.869,4.606,12.984,10.634,16.334l29.669,16.482c4.721,2.623,10.462,2.623,15.183,0l29.669-16.482
	c6.029-3.35,10.011-9.465,10.634-16.334l3.735-36.469c0.266-2.592,0.322-5.2,0.235-7.801
	C452.079,344.479,433.428,334.832,428.217,324.41z"/>
<path style="fill:#E6AF78;" d="M351.032,371.307l3.236,30.706c0.625,6.869,4.606,12.984,10.634,16.334l29.669,16.482
	c3.276,1.82,7.034,2.291,10.61,1.586l0,0c0,0-14.958-4.533-23.861-28.632c-2.727-7.382-6.513-46.463-3.257-51.24
	c6.437-9.441,42.337-10.422,52.945-27.936c-0.524-0.65-1.008-1.301-1.449-1.953c-0.035-0.052-0.079-0.105-0.114-0.158
	c-0.461-0.693-0.878-1.387-1.228-2.085C402.164,350.464,351.032,329.621,351.032,371.307z"/>
<path style="fill:#E4EAF6;" d="M440.203,501.577h-13.548c-4.892,0-8.858,3.966-8.858,8.858v1.563h31.264v-1.563
	C449.061,505.544,445.095,501.577,440.203,501.577z"/>
<g>
</g>
<g>
</g>
<g>
</g>
<g>
</g>
<g>
</g>
<g>
</g>
<g>
</g>
<g>
</g>
<g>
</g>
<g>
</g>
<g>
</g>
<g>
</g>
<g>
</g>
<g>
</g>
<g>
</g>
</svg>
