<?xml version="1.0" encoding="iso-8859-1"?>
<!-- Generator: Adobe Illustrator 19.0.0, SVG Export Plug-In . SVG Version: 6.00 Build 0)  -->
<svg version="1.1" id="Capa_1" xmlns="http://www.w3.org/2000/svg" xmlns:xlink="http://www.w3.org/1999/xlink" x="0px" y="0px"
	 viewBox="0 0 58 58" style="enable-background:new 0 0 58 58;" xml:space="preserve">
<g id="XMLID_7_">
	<path id="XMLID_130_" style="fill:#6BBEA1;" d="M54.783,50H3.217C1.439,50,0,48.56,0,46.783V11.217C0,9.44,1.439,8,3.217,8h51.566
		C56.56,8,58,9.44,58,11.217v35.566C58,48.56,56.56,50,54.783,50"/>
	<rect id="XMLID_129_" x="5" y="37" style="fill:#498679;" width="9" height="6"/>
	<rect id="XMLID_128_" x="18" y="37" style="fill:#498679;" width="9" height="6"/>
	<rect id="XMLID_127_" x="31" y="37" style="fill:#498679;" width="9" height="6"/>
	<rect id="XMLID_126_" x="44" y="37" style="fill:#498679;" width="9" height="6"/>
	<path id="XMLID_125_" style="fill:#F0C41B;" d="M19.745,26H6.255C5.563,26,5,25.438,5,24.745v-9.49C5,14.562,5.563,14,6.255,14
		h13.49C20.438,14,21,14.562,21,15.255v9.49C21,25.438,20.438,26,19.745,26"/>
	<path id="XMLID_122_" style="fill:#F3D55C;" d="M19.745,27H6.255C5.012,27,4,25.988,4,24.745v-9.49C4,14.012,5.012,13,6.255,13
		h13.49C20.988,13,22,14.012,22,15.255v9.49C22,25.988,20.988,27,19.745,27 M6.255,15C6.113,15,6,15.114,6,15.255v9.49
		C6,24.886,6.113,25,6.255,25h13.49C19.886,25,20,24.886,20,24.745v-9.49C20,15.114,19.886,15,19.745,15H6.255z"/>
	<path id="XMLID_121_" style="fill:#F0C41B;" d="M21,15.255C21,14.561,20.438,14,19.745,14H15h-2.745C11.561,14,11,14.561,11,15.255
		V18v6.745C11,25.438,11.561,26,12.255,26h1.49C14.438,26,15,25.438,15,24.745v-5.49C15,18.562,15.561,18,16.255,18h3.49
		C20.438,18,21,17.438,21,16.745V15.255z"/>
	<path id="XMLID_118_" style="fill:#F3D55C;" d="M13.745,27h-1.49C11.012,27,10,25.988,10,24.745v-9.49
		C10,14.012,11.012,13,12.255,13h7.49C20.988,13,22,14.012,22,15.255v1.49C22,17.988,20.988,19,19.745,19h-3.49
		C16.113,19,16,19.114,16,19.255v5.49C16,25.988,14.988,27,13.745,27 M12.255,15C12.113,15,12,15.114,12,15.255v9.49
		C12,24.886,12.113,25,12.255,25h1.49C13.886,25,14,24.886,14,24.745v-5.49C14,18.012,15.012,17,16.255,17h3.49
		C19.886,17,20,16.886,20,16.745v-1.49C20,15.114,19.886,15,19.745,15H12.255z"/>
	<line id="XMLID_117_" style="fill:#F0C41B;" x1="15" y1="22" x2="21" y2="22"/>
	<path id="XMLID_116_" style="fill:#F3D55C;" d="M21,23h-6c-0.553,0-1-0.448-1-1s0.447-1,1-1h6c0.553,0,1,0.448,1,1S21.553,23,21,23
		"/>
	<line id="XMLID_115_" style="fill:#F0C41B;" x1="11" y1="18" x2="5" y2="18"/>
	<path id="XMLID_114_" style="fill:#F3D55C;" d="M11,19H5c-0.553,0-1-0.448-1-1s0.447-1,1-1h6c0.553,0,1,0.448,1,1S11.553,19,11,19"
		/>
	<line id="XMLID_113_" style="fill:#F0C41B;" x1="11" y1="22" x2="5" y2="22"/>
	<path id="XMLID_112_" style="fill:#F3D55C;" d="M11,23H5c-0.553,0-1-0.448-1-1s0.447-1,1-1h6c0.553,0,1,0.448,1,1S11.553,23,11,23"
		/>
	<path id="XMLID_111_" style="fill:#498679;" d="M40,13h-9c-0.553,0-1,0.448-1,1s0.447,1,1,1h9c0.553,0,1-0.448,1-1S40.553,13,40,13
		"/>
	<path id="XMLID_110_" style="fill:#498679;" d="M54,14c0-0.552-0.447-1-1-1h-9c-0.553,0-1,0.448-1,1s0.447,1,1,1h9
		C53.553,15,54,14.552,54,14"/>
	<path id="XMLID_109_" style="fill:#498679;" d="M32,18h-1c-0.553,0-1,0.448-1,1s0.447,1,1,1h1c0.553,0,1-0.448,1-1S32.553,18,32,18
		"/>
	<path id="XMLID_108_" style="fill:#498679;" d="M38,18h-2c-0.553,0-1,0.448-1,1s0.447,1,1,1h2c0.553,0,1-0.448,1-1S38.553,18,38,18
		"/>
	<path id="XMLID_107_" style="fill:#498679;" d="M43,18h-1c-0.553,0-1,0.448-1,1s0.447,1,1,1h1c0.553,0,1-0.448,1-1S43.553,18,43,18
		"/>
	<path id="XMLID_106_" style="fill:#498679;" d="M49,18h-2c-0.553,0-1,0.448-1,1s0.447,1,1,1h2c0.553,0,1-0.448,1-1S49.553,18,49,18
		"/>
	<path id="XMLID_105_" style="fill:#498679;" d="M52.29,18.29C52.109,18.48,52,18.74,52,19c0,0.26,0.109,0.52,0.29,0.71
		C52.479,19.89,52.729,20,53,20c0.26,0,0.519-0.11,0.71-0.29C53.89,19.52,54,19.26,54,19c0-0.26-0.11-0.52-0.29-0.71
		C53.33,17.92,52.66,17.92,52.29,18.29"/>
</g>
<g>
</g>
<g>
</g>
<g>
</g>
<g>
</g>
<g>
</g>
<g>
</g>
<g>
</g>
<g>
</g>
<g>
</g>
<g>
</g>
<g>
</g>
<g>
</g>
<g>
</g>
<g>
</g>
<g>
</g>
</svg>
