<?xml version="1.0" encoding="UTF-8"?>
<svg width="130px" height="60px" viewBox="0 0 130 60" version="1.1" xmlns="http://www.w3.org/2000/svg" xmlns:xlink="http://www.w3.org/1999/xlink">
    <!-- Generator: Sketch 46.2 (44496) - http://www.bohemiancoding.com/sketch -->
    <title>header-logo-v2</title>
    <desc>Created with Sketch.</desc>
    <defs></defs>
    <g id="Page-1" stroke="none" stroke-width="1" fill="none" fill-rule="evenodd">
        <g id="header-logo-v2" fill-rule="nonzero" fill="#00BFD6">
            <g id="Group-Copy" transform="translate(2.000000, 0.000000)">
                <path d="M7.24978634,14.2012276 C7.24978634,14.2012276 0.0895035351,14.111724 0.0895035351,18.8852459 L0.0895035351,41.4699713 C0.0895035351,41.4699713 7.24978634,41.7683164 7.24978634,36.96496 L7.24978634,14.2012276 Z" id="Shape"></path>
                <path d="M72.5575324,14.2012276 C72.5575324,14.2012276 65.3972496,14.111724 65.3972496,18.8852459 L65.3972496,41.4699713 C65.3972496,41.4699713 72.5575324,41.7683164 72.5575324,36.96496 L72.5575324,14.2012276 Z" id="Shape"></path>
                <path d="M9.6962163,14.4995727 C9.6962163,14.4995727 15.9912983,12.769171 18.1095486,17.4531893 L23.7184368,30.9085541 L29.327325,17.4233548 C29.327325,17.4233548 30.610209,13.0973506 37.7406573,14.4995727 L23.0919121,49.3462823 C23.0919121,49.3462823 21.2421723,53.5529485 14.9470904,51.9120503 L20.1681299,39.471059 L9.6962163,14.4995727 Z" id="Shape"></path>
                <path d="M40.2467563,14.2012276 L62.6524746,14.2012276 C62.6524746,14.2012276 64.1442001,18.7360733 60.8325693,23.032243 L48.4810815,35.5627379 L57.371766,35.5627379 C57.371766,35.5627379 62.5331365,35.4732344 62.6823091,41.4998058 L40.4257633,41.4998058 C40.4257633,41.4998058 39.0533758,36.3682698 42.9318623,31.9229275 L55.0446741,20.1681299 L45.7959754,20.1681299 C45.7661409,20.1382954 40.7241085,20.4963095 40.2467563,14.2012276 Z" id="Shape"></path>
                <path d="M98.5135576,36.7859529 L98.5135576,36.8456219 C96.6041489,33.4444876 92.7853314,35.622407 92.7853314,35.622407 C86.0427317,38.6058581 83.6858053,33.5638257 83.6858053,33.5638257 C80.9410302,27.5670888 83.6858053,21.8686971 83.6858053,21.8686971 C86.3709114,16.7669956 92.8450004,19.9294538 92.8450004,19.9294538 C97.021832,21.8686971 98.3942196,18.9449149 98.5135576,18.7062388 L98.5135576,18.6764043 C96.0969622,15.9316292 92.6361588,14.1713931 88.7576723,14.1713931 C81.4780514,14.1713931 75.6006526,20.287468 75.6006526,27.8355994 C75.6006526,35.3837309 81.5078859,41.4998058 88.7576723,41.4998058 C92.6361588,41.4998058 96.1267967,39.7694041 98.5433921,36.9947945 L98.5135576,36.7859529 Z" id="Shape"></path>
                <path d="M113.042965,14.2012276 C106.031855,14.2012276 100.333463,20.3173025 100.333463,27.8355994 C100.333463,35.3538964 106.031855,41.4699713 113.042965,41.4699713 C120.054075,41.4699713 125.752467,35.3538964 125.752467,27.8355994 C125.752467,20.3173025 120.08391,14.2012276 113.042965,14.2012276 Z M113.042965,36.5174423 C109.611996,36.5174423 106.837386,32.6091213 106.837386,27.7460959 C106.837386,22.912905 109.611996,18.9747494 113.042965,18.9747494 C116.473934,18.9747494 119.248543,22.8830705 119.248543,27.7460959 C119.248543,32.6091213 116.473934,36.5174423 113.042965,36.5174423 Z" id="Shape"></path>
                <circle id="Oval" cx="3.66964494" cy="3.63981043" r="3.5801414"></circle>
                <circle id="Oval" cx="68.9475565" cy="3.63981043" r="3.5801414"></circle>
                <path d="M43.2003729,56.7154067 C42.215834,56.7154067 41.4998058,56.4767306 40.9627846,55.9098749 C40.3959288,55.3131847 40.0975837,54.2988113 40.0975837,52.9264237 C40.0975837,49.3164478 41.8279854,48.570585 43.260042,48.570585 C44.662264,48.570585 45.4976303,49.4059514 45.6766374,50.8976769 C45.7064719,51.1661876 45.7064719,51.4048636 45.7064719,51.6733743 C45.7064719,52.0313884 45.6766374,52.3894025 45.6169684,52.6280786 L45.6169684,52.6579131 L45.6169684,52.6579131 C45.4379613,52.8070857 44.9009401,52.9860928 44.4534224,53.0457618 C43.9760702,53.1054308 43.1705384,53.1352653 42.3351721,53.1352653 C42.096496,53.1352653 41.8876544,53.1352653 41.6489783,53.1352653 C41.6788128,55.1341776 42.7230207,55.3728537 43.498718,55.3728537 C44.2147463,55.3728537 44.7816021,55.2535157 45.2887887,54.9850051 L45.3484578,54.9551705 L45.3782923,55.0148396 C45.4379613,55.1640121 45.4677958,55.4921917 45.4677958,55.6711988 C45.4379613,56.029213 44.9307746,56.3872271 44.4832569,56.5065651 C44.1550773,56.6259032 43.6777251,56.7154067 43.2003729,56.7154067 Z M41.6489783,52.0612229 L42.215834,52.0612229 C42.9020278,52.0612229 43.5285526,52.0313884 43.8268977,52.0015539 C43.9760702,51.9717194 44.0655738,51.9717194 44.1550773,51.9120503 C44.2147463,51.7927123 44.2147463,51.5838707 44.2147463,51.4048636 C44.2147463,51.3451946 44.2147463,51.2855256 44.2147463,51.2258566 C44.2147463,51.1661876 44.2147463,51.1065185 44.2147463,51.0468495 C44.1252428,50.1518142 43.7672287,49.734131 43.1108694,49.734131 C43.0512004,49.734131 43.0213659,49.734131 42.9915313,49.734131 L42.9915313,49.734131 C42.096496,49.8833036 41.7086473,51.017015 41.6489783,52.0612229 Z" id="Shape"></path>
                <path d="M49.1076062,56.6855722 C48.1529019,56.6855722 47.0191904,56.1187165 47.0191904,54.4778184 C47.0191904,52.2700645 49.1672753,51.8822158 49.7938,51.8225468 C49.9728071,51.7927123 50.1219796,51.7927123 50.2413177,51.7927123 C50.4203248,51.7927123 50.5993318,51.7927123 50.7186699,51.8225468 L50.7186699,50.957346 C50.7186699,50.1816487 50.6291663,49.8833036 50.0026416,49.8833036 C49.5551239,49.8833036 48.9882682,50.0324761 48.3319089,50.3009867 C48.1230674,50.3904902 47.9738948,50.4203248 47.8545568,50.4203248 L47.8247222,50.4203248 L47.7948877,50.3904902 C47.6755497,50.2711522 47.5860462,50.0324761 47.5263771,49.7042965 C47.4965426,49.6446275 47.4965426,49.5849584 47.4965426,49.5252894 C47.4965426,49.4656204 47.4965426,49.4059514 47.5263771,49.3164478 L47.5263771,49.3164478 L47.5263771,49.3164478 C47.8545568,49.0181027 48.8092611,48.570585 49.9728071,48.510916 C50.2413177,48.510916 50.2711522,48.510916 50.5396628,48.5407505 C51.7032088,48.6302541 52.180561,49.3164478 52.180561,50.8380079 L52.180561,51.5540362 C52.180561,52.1507264 52.180561,52.7772512 52.1507264,53.4037759 C52.1507264,53.9407971 52.1507264,54.4181493 52.1507264,54.8358325 C52.1507264,54.8358325 52.1208919,55.3131847 52.299899,55.4623572 C52.359568,55.5220263 52.4490716,55.5220263 52.5385751,55.5220263 L52.5982441,55.5220263 L52.5982441,55.5816953 C52.5684096,55.8203714 52.5684096,56.088882 52.5684096,56.1783855 L52.5684096,56.20822 L52.5684096,56.20822 C52.4490716,56.3872271 52.1208919,56.5960687 51.6733743,56.5960687 C51.2855256,56.5960687 50.8976769,56.2977236 50.6888354,56.029213 C50.5993318,56.1187165 50.4203248,56.2678891 50.2413177,56.3573926 C49.9429726,56.6557377 49.5551239,56.6855722 49.1076062,56.6855722 Z M50.4799938,52.8965892 C50.3009867,52.8965892 50.1219796,52.9264237 49.9429726,52.9264237 C48.9882682,53.0755963 48.5407505,53.523114 48.5407505,54.3584803 C48.5407505,55.0745086 48.8092611,55.4325227 49.3462823,55.4623572 L49.4656204,55.4623572 C49.9131381,55.4623572 50.4501593,55.2535157 50.6590009,54.9850051 C50.6590009,54.9551705 50.6888354,54.865667 50.6888354,54.7761635 C50.7186699,54.5971564 50.7186699,54.3286458 50.7186699,54.0004662 L50.7186699,52.8965892 C50.6590009,52.8965892 50.5694973,52.8965892 50.4799938,52.8965892 Z" id="Shape"></path>
                <path d="M56.1783855,56.7154067 C55.1341776,56.7154067 54.2689768,56.4170616 54.0899697,55.9993784 L54.0899697,55.9695439 C54.0899697,55.6711988 54.2093077,55.3430192 54.3584803,55.1341776 L54.3883148,55.1043431 L54.4778184,55.1043431 C54.5971564,55.1043431 54.746329,55.1341776 54.925336,55.2535157 C55.3131847,55.4026882 55.7308678,55.5220263 56.148551,55.5220263 C56.2380545,55.5220263 56.3573926,55.4921917 56.4468961,55.4921917 C57.0137518,55.4325227 57.3419315,55.0745086 57.3419315,54.5673219 C57.3419315,54.2093077 57.1330899,53.8811281 56.6557377,53.5529485 L56.4767306,53.4336104 C56.088882,53.1650998 55.6413643,52.8369202 55.3131847,52.5684096 L54.925336,52.24023 C54.4181493,51.7628778 54.1794732,51.2556911 54.1794732,50.6888354 C54.1794732,49.4357859 55.1640121,48.6302541 56.6855722,48.6302541 C56.8645793,48.6302541 57.0435864,48.6600886 57.1629244,48.6600886 C58.1176288,48.7197576 58.5651465,49.1076062 58.65465,49.3462823 L58.65465,49.3761169 C58.65465,49.5849584 58.5353119,49.9429726 58.4159739,50.1219796 L58.3861394,50.1518142 L58.3563049,50.1518142 C58.2966358,50.1219796 58.2071323,50.1219796 58.1474633,50.1219796 C57.9684562,50.0921451 57.8192837,50.0623106 57.6104421,50.0026416 C57.371766,49.9131381 57.1032554,49.853469 56.8347448,49.853469 C56.20822,49.853469 55.7905369,50.1816487 55.7905369,50.6590009 C55.7905369,50.9275115 55.9397094,51.1661876 56.2977236,51.4346982 C56.4767306,51.5838707 56.7154067,51.7628778 56.9839173,51.9418849 C57.312097,52.180561 57.6701111,52.419237 57.9386217,52.6579131 C58.6248155,53.1949343 58.9231606,53.7319556 58.9231606,54.4778184 C58.9231606,55.7905369 57.8491182,56.7154067 56.1783855,56.7154067 Z" id="Shape"></path>
                <path d="M61.3099215,59.7286924 C60.4745552,59.7286924 60.1165411,59.4303473 60.0270375,59.1618367 L60.0270375,59.1618367 C60.0270375,59.0126641 60.1165411,58.714319 60.1165411,58.714319 L60.1165411,58.6844845 L60.1463756,58.6844845 C60.2955481,58.6248155 60.4745552,58.6248155 60.6535623,58.65465 C60.8922384,58.65465 61.1309145,58.65465 61.4292596,58.5651465 C61.8171082,58.3563049 62.3242949,57.1629244 62.562971,56.148551 C62.562971,56.148551 62.562971,56.148551 62.562971,56.148551 C62.5331365,56.1187165 62.503302,56.1187165 62.503302,56.088882 C62.3541294,55.8800404 62.2944604,55.6711988 62.1751224,55.3430192 C62.1751224,55.3131847 60.9519074,51.2258566 60.2060446,49.2269443 L60.2060446,49.1971098 L60.2060446,49.1672753 C60.3253826,48.8689302 60.6535623,48.7495921 61.4889286,48.7495921 C61.6679357,48.7495921 61.8469427,49.4059514 61.8767773,49.4357859 C62.0259498,49.8833036 62.4734675,51.4048636 62.8016471,52.5684096 C62.9508197,53.1352653 63.0701577,53.702121 63.1894958,54.1198042 C63.2193303,54.2988113 63.2789993,54.4479838 63.3088338,54.5673219 C63.4281719,54.1198042 63.666848,53.1352653 63.8160205,52.5087406 C63.9651931,51.8523813 64.1143656,51.1661876 64.2933727,50.5098283 C64.4127107,49.9728071 64.5618833,49.4357859 64.6513868,48.9882682 L64.6513868,48.9584337 L64.6513868,48.9584337 C64.8602284,48.7794266 65.009401,48.7794266 65.6359257,48.8092611 C65.7254293,48.8092611 65.8149328,48.8092611 65.9044363,48.8092611 L65.9342708,48.8092611 L65.9342708,48.8390956 C65.9939399,48.9584337 66.0237744,49.0777717 66.0237744,49.1971098 C66.0237744,49.3164478 65.9939399,49.4656204 65.9342708,49.6446275 C65.5165877,51.3153601 64.7110559,54.2093077 63.8160205,56.7452412 C62.9806542,58.7441535 62.1751224,59.7286924 61.3099215,59.7286924 Z" id="Shape"></path>
                <path d="M73.8105819,56.7452412 C72.2890218,56.7452412 70.5287856,56.2977236 70.5287856,52.8070857 C70.5287856,50.9275115 71.1851449,49.9131381 71.7221661,49.4059514 C72.2890218,48.8689302 73.0348846,48.6004195 73.989589,48.6004195 C74.9741279,48.6004195 75.6901562,49.0479372 75.7796597,49.2866133 L75.7796597,49.3164478 C75.7796597,49.5252894 75.6901562,49.9131381 75.5708181,50.1518142 L75.5409836,50.1816487 L75.4216456,50.1816487 C75.3023075,50.1816487 75.1233004,50.1219796 74.9741279,50.0921451 C74.6757828,49.9728071 74.3177686,49.8833036 74.0194235,49.8833036 C73.92992,49.8833036 73.870251,49.8833036 73.8105819,49.9131381 C72.706705,50.0026416 72.1100148,51.017015 72.1100148,52.7772512 C72.1100148,53.9706317 72.3188563,55.5518608 74.1387616,55.5518608 C74.5862792,55.5518608 75.1233004,55.4325227 75.5111491,55.2535157 L75.5708181,55.2236811 L75.6006526,55.2833502 C75.6603217,55.4623572 75.6901562,55.6413643 75.6901562,55.7607024 C75.6603217,55.9993784 75.5111491,56.2977236 75.3023075,56.4468961 C74.9442934,56.5960687 74.3774377,56.7452412 73.8105819,56.7452412 Z" id="Shape"></path>
                <path d="M81.7167275,56.5662342 L81.686893,56.5662342 L81.686893,56.5363997 C81.5973895,56.3573926 81.567555,56.088882 81.567555,55.7607024 L81.567555,51.8225468 C81.567555,51.5242017 81.567555,51.2855256 81.5377205,51.136353 C81.4780514,50.0324761 81.0006992,49.8833036 80.5233471,49.8833036 C79.7774843,49.8833036 79.2106285,50.3606557 78.9719525,50.5694973 L78.9719525,55.4921917 C78.9719525,55.7905369 78.9421179,56.088882 78.7929454,56.3573926 L78.7929454,56.3872271 C78.5542693,56.5662342 78.3752622,56.5662342 77.5100614,56.5662342 L77.4503924,56.5662342 L77.4503924,56.5065651 C77.4802269,55.5220263 77.4802269,54.4479838 77.4802269,53.1352653 L77.4802269,46.9296869 C77.4802269,46.2434931 77.4503924,45.7661409 77.4503924,45.4081268 L77.4503924,45.4081268 L77.4503924,45.4081268 C77.6592339,45.0202781 78.0769171,44.9606091 78.7929454,44.9606091 L78.8227799,44.9606091 L78.8227799,44.9904436 C78.9421179,45.1992852 78.9719525,45.4081268 78.9719525,46.0943206 L78.9719525,49.4059514 C79.2702976,49.1672753 79.5984772,48.9285992 79.9266568,48.8092611 C80.2548365,48.6899231 80.6128506,48.6004195 81.0006992,48.6004195 C82.5222593,48.6004195 83.0891151,49.4059514 83.0891151,51.7032088 L83.0891151,54.0899697 C83.0891151,54.9551705 83.0891151,55.7308678 83.1189496,56.3275581 L83.1189496,56.3573926 L83.0891151,56.3872271 C82.910108,56.5065651 82.7012664,56.5662342 81.7167275,56.5662342 Z" id="Shape"></path>
                <path d="M88.101313,56.7154067 C87.1167741,56.7154067 86.4007459,56.4767306 85.8637247,55.9098749 C85.2968689,55.3131847 84.9985238,54.2988113 84.9985238,52.9264237 C84.9985238,49.3164478 86.7289255,48.570585 88.1609821,48.570585 C89.5632041,48.570585 90.3985704,49.4059514 90.5775775,50.8976769 C90.607412,51.1661876 90.607412,51.4048636 90.607412,51.6733743 C90.607412,52.0313884 90.5775775,52.3894025 90.5179085,52.6280786 L90.5179085,52.6579131 L90.5179085,52.6579131 C90.3389014,52.8070857 89.8018802,52.9860928 89.3543625,53.0457618 C88.8770103,53.1054308 88.0714785,53.1352653 87.2361122,53.1352653 C86.9974361,53.1352653 86.7885945,53.1352653 86.5499184,53.1352653 C86.5797529,55.1341776 87.6239608,55.3728537 88.3996581,55.3728537 C89.1156864,55.3728537 89.6825421,55.2535157 90.1897288,54.9850051 L90.2493979,54.9551705 L90.2792324,55.0148396 C90.3389014,55.1640121 90.3687359,55.4921917 90.3687359,55.6711988 C90.3389014,56.029213 89.8317147,56.3872271 89.384197,56.5065651 C89.0560174,56.6259032 88.5786652,56.7154067 88.101313,56.7154067 Z M86.5499184,52.0612229 L87.1167741,52.0612229 C87.8029679,52.0612229 88.4294927,52.0313884 88.7278378,52.0015539 C88.8770103,51.9717194 88.9665139,51.9717194 89.0560174,51.9120503 C89.1156864,51.7927123 89.1156864,51.5838707 89.1156864,51.4048636 C89.1156864,51.3451946 89.1156864,51.2855256 89.1156864,51.2258566 C89.1156864,51.1661876 89.1156864,51.1065185 89.1156864,51.0468495 C89.0261829,50.1518142 88.6681688,49.734131 88.0118095,49.734131 C87.9521405,49.734131 87.922306,49.734131 87.8924714,49.734131 L87.8924714,49.734131 C86.9974361,49.8833036 86.6095874,51.017015 86.5499184,52.0612229 Z" id="Shape"></path>
                <path d="M95.3510994,56.7452412 C93.8295393,56.7452412 92.0693031,56.2977236 92.0693031,52.8070857 C92.0693031,50.9275115 92.7256623,49.9131381 93.2626836,49.4059514 C93.8295393,48.8689302 94.5754021,48.6004195 95.5301064,48.6004195 C96.5146453,48.6004195 97.2306736,49.0479372 97.3201771,49.2866133 L97.3201771,49.3164478 C97.3201771,49.5252894 97.2306736,49.9131381 97.1113356,50.1518142 L97.081501,50.1816487 L96.962163,50.1816487 C96.842825,50.1816487 96.6638179,50.1219796 96.5146453,50.0921451 C96.2163002,49.9728071 95.8582861,49.8833036 95.559941,49.8833036 C95.4704374,49.8833036 95.4107684,49.8833036 95.3510994,49.9131381 C94.2472224,50.0026416 93.6505322,51.017015 93.6505322,52.7772512 C93.6505322,53.9706317 93.8593738,55.5518608 95.679279,55.5518608 C96.1267967,55.5518608 96.6638179,55.4325227 97.0516665,55.2535157 L97.1113356,55.2236811 L97.1411701,55.2833502 C97.2008391,55.4623572 97.2306736,55.6413643 97.2306736,55.7607024 C97.2008391,55.9993784 97.0516665,56.2977236 96.842825,56.4468961 C96.4549763,56.5960687 95.9179551,56.7452412 95.3510994,56.7452412 Z" id="Shape"></path>
                <path d="M108.746795,56.7452412 C106.59871,56.7452412 105.554502,55.4325227 105.554502,52.7175822 C105.554502,50.1219796 106.718048,48.6004195 108.77663,48.6004195 C110.865045,48.6004195 111.909253,49.9429726 111.909253,52.5982441 C111.939088,55.1341776 110.715873,56.7452412 108.746795,56.7452412 Z M108.746795,49.7639655 C108.269443,49.7639655 107.165566,50.0324761 107.165566,52.6280786 C107.165566,54.5971564 107.702587,55.5816953 108.77663,55.5816953 C109.791003,55.5816953 110.328024,54.5374874 110.328024,52.6579131 C110.328024,50.7186699 109.820838,49.7938 108.77663,49.7938 L108.746795,49.7938 L108.746795,49.7639655 Z" id="Shape"></path>
                <path d="M116.145754,56.6855722 C114.236345,56.5960687 113.848497,55.6413643 113.818662,53.8811281 L113.967835,50.4799938 C113.967835,49.8236345 113.848497,49.3761169 113.729159,49.0777717 L113.729159,49.0479372 L113.758993,49.0181027 C113.848497,48.8987647 114.117007,48.7495921 114.53469,48.5407505 C114.624194,48.510916 114.654028,48.510916 114.683863,48.510916 C115.101546,48.510916 115.250719,48.8689302 115.310388,49.1076062 C115.399891,49.4954549 115.489395,49.853469 115.489395,50.6888354 L115.489395,50.6888354 L115.340222,53.642452 C115.340222,55.0745086 115.78774,55.3430192 116.533603,55.3430192 C117.040789,55.3728537 117.63748,55.1341776 117.90599,54.805998 L117.90599,49.674462 C117.90599,49.3462823 117.935825,49.1076062 118.084997,48.8689302 L118.084997,48.8689302 C118.264004,48.7197576 118.443011,48.7197576 119.099371,48.6899231 L119.397716,48.6899231 L119.397716,48.7495921 C119.367881,49.6147929 119.367881,50.6590009 119.367881,51.9120503 L119.367881,54.6568254 C119.367881,55.1043431 119.42755,55.4921917 119.546888,55.8502059 L119.546888,55.8800404 L119.517054,55.9098749 C119.42755,55.9993784 119.248543,56.1187165 118.860695,56.2977236 C118.801026,56.3275581 118.741357,56.3275581 118.711522,56.3275581 C118.532515,56.3275581 118.293839,56.2380545 118.174501,55.8800404 C117.816487,56.148551 117.488307,56.3573926 117.100458,56.4767306 C116.802113,56.6557377 116.503768,56.6855722 116.145754,56.6855722 Z" id="Shape"></path>
                <path d="M124.0519,56.7452412 C122.828685,56.7452412 122.20216,55.8502059 122.20216,53.9706317 L122.20216,50.0026416 C121.754642,50.0026416 121.486132,49.9429726 121.247456,49.8236345 L121.217621,49.8236345 L121.217621,49.7938 C121.217621,49.3761169 121.217621,49.3164478 121.336959,49.2269443 C121.336959,49.2269443 121.366794,49.1971098 121.396628,49.1971098 C121.545801,49.0777717 121.814311,48.9882682 122.023153,48.9285992 C122.142491,48.8987647 122.261829,48.8689302 122.351332,48.8390956 L122.440836,47.4070391 C122.53034,47.1385285 122.828685,46.7805143 123.693885,46.7208453 L123.753555,46.7208453 L123.753555,46.9595214 C123.753555,47.6158807 123.72372,48.2125709 123.72372,48.8092611 L125.812136,48.8092611 L125.812136,48.8689302 C125.752467,49.6446275 125.662963,49.8833036 125.394453,49.9429726 C125.275115,49.9728071 125.125942,49.9728071 125.006604,49.9728071 C124.588921,50.0026416 124.380079,50.0026416 123.72372,50.0026416 C123.693885,50.6888354 123.693885,51.4645327 123.693885,52.1507264 C123.693885,52.5385751 123.693885,52.8965892 123.693885,53.2247689 C123.693885,53.523114 123.693885,53.7916246 123.693885,54.0303007 C123.753555,54.9850051 123.902727,55.5220263 124.499417,55.5220263 C124.738093,55.5220263 125.454122,55.3131847 125.57346,55.2236811 L125.633129,55.1640121 L125.662963,55.2535157 C125.692798,55.3728537 125.692798,55.5220263 125.692798,55.6115298 C125.692798,55.7607024 125.692798,55.9098749 125.662963,56.0590475 C125.633129,56.20822 125.543625,56.2977236 125.394453,56.4170616 C125.155777,56.5960687 124.588921,56.7452412 124.0519,56.7452412 Z" id="Shape"></path>
                <path d="M99.4980965,56.7154067 C99.3787584,56.7154067 99.2295859,56.7154067 99.0505788,56.7154067 L98.9909098,56.7154067 L98.9909098,56.6557377 C99.0207443,56.0590475 99.0207443,53.8811281 99.0207443,53.2247689 L99.0207443,53.2247689 L99.0207443,46.9595214 C99.0207443,46.2733276 98.9909098,45.7959754 98.9909098,45.4081268 L98.9909098,45.4081268 L98.9909098,45.4081268 C99.1997514,45.0202781 99.6174345,44.9606091 100.333463,44.9606091 L100.363297,44.9606091 L100.363297,44.9904436 C100.482635,45.1992852 100.51247,45.4379613 100.51247,46.0943206 L100.572139,51.4645327 C100.631808,51.4048636 100.691477,51.3451946 100.751146,51.2855256 C101.019657,51.017015 101.347836,50.6590009 101.467174,50.5098283 C102.063865,49.7938 102.421879,49.3761169 102.720224,49.1076062 C103.108072,48.8092611 103.287079,48.7794266 103.645094,48.7794266 L104.450625,48.7794266 C104.569963,48.8092611 104.629633,48.8390956 104.629633,48.8987647 C104.659467,48.9882682 104.629633,49.0777717 104.510294,49.1971098 C103.794266,50.0623106 102.242872,51.8523813 101.556678,52.5982441 L104.898143,56.2977236 C105.017481,56.4170616 105.047316,56.5363997 105.017481,56.5960687 C104.987647,56.6259032 104.957812,56.6855722 104.838474,56.7154067 L103.973273,56.7154067 C103.645094,56.7154067 103.495921,56.7154067 103.108072,56.4170616 C102.839562,56.148551 102.511382,55.7607024 101.855023,54.9850051 C101.735685,54.8358325 101.407505,54.5076529 101.138995,54.2093077 C100.989822,54.0303007 100.84065,53.9109626 100.78098,53.8214591 C100.751146,53.7916246 100.661642,53.702121 100.572139,53.642452 L100.572139,56.0590475 C100.572139,56.2678891 100.572139,56.4170616 100.482635,56.5363997 C100.363297,56.6855722 100.124621,56.7154067 99.4980965,56.7154067 Z" id="Shape"></path>
            </g>
        </g>
    </g>
</svg>